<svg width="10" height="15" viewBox="0 0 10 15" fill="none" xmlns="http://www.w3.org/2000/svg">
<g clip-path="url(#clip0_9_7)">
<path d="M2.37988 4.75977L2.19471 4.25723C1.83923 3.29248 1.00818 2.5816 8.87862e-08 2.37988V2.37988V2.37988C1.00818 2.17816 1.83923 1.46729 2.19471 0.502536L2.37988 1.77572e-07L2.56505 0.502535C2.92054 1.46728 3.75159 2.17816 4.75977 2.37988V2.37988V2.37988C3.75159 2.5816 2.92054 3.29248 2.56505 4.25723L2.37988 4.75977Z" fill="#4141F9"/>
<path d="M4.84863 14.457L4.47138 13.4332C3.74713 11.4677 2.054 10.0194 5.44207e-08 9.6084V9.6084V9.6084C2.054 9.19742 3.74713 7.74913 4.47138 5.7836L4.84863 4.75977L5.22589 5.7836C5.95013 7.74913 7.64327 9.19742 9.69727 9.6084V9.6084V9.6084C7.64327 10.0194 5.95013 11.4677 5.22589 13.4332L4.84863 14.457Z" fill="#4141F9"/>
</g>
<defs>
<clipPath id="clip0_9_7">
<rect width="10" height="14.457" fill="white"/>
</clipPath>
</defs>
</svg>
